<svg width="390" height="659" viewBox="0 0 390 659" fill="none" xmlns="http://www.w3.org/2000/svg">
<mask id="path-1-inside-1_168_103" fill="white">
<path d="M316.362 0C354.656 0.000204643 386.12 29.2298 389.666 66.5947H390V658.261H-3V0H316.362Z"/>
</mask>
<path d="M316.362 0C354.656 0.000204643 386.12 29.2298 389.666 66.5947H390V658.261H-3V0H316.362Z" fill="#0E1F92"/>
<path d="M316.362 0L316.362 -3H316.362V0ZM389.666 66.5947L386.679 66.8781L386.937 69.5947H389.666V66.5947ZM390 66.5947H393V63.5947H390V66.5947ZM390 658.261V661.261H393V658.261H390ZM-3 658.261H-6V661.261H-3V658.261ZM-3 0V-3H-6V0H-3ZM316.362 0L316.362 3C353.094 3.0002 383.279 31.0385 386.679 66.8781L389.666 66.5947L392.653 66.3113C388.962 27.421 356.217 -2.99979 316.362 -3L316.362 0ZM389.666 66.5947V69.5947H390V66.5947V63.5947H389.666V66.5947ZM390 66.5947H387V658.261H390H393V66.5947H390ZM390 658.261V655.261H-3V658.261V661.261H390V658.261ZM-3 658.261H0V0H-3H-6V658.261H-3ZM-3 0V3H316.362V0V-3H-3V0Z" fill="#D4AF37" mask="url(#path-1-inside-1_168_103)"/>
</svg>
