<svg width="32" height="32" viewBox="0 0 32 32" fill="none" xmlns="http://www.w3.org/2000/svg">
<path d="M31.5178 15.75L17.7178 1.95714L16.7928 1.03214C16.5821 0.822768 16.2971 0.705261 16 0.705261C15.7029 0.705261 15.4179 0.822768 15.2071 1.03214L0.482124 15.75C0.266163 15.9651 0.0954861 16.2213 -0.0198332 16.5035C-0.135152 16.7856 -0.192777 17.0881 -0.189305 17.3929C-0.175019 18.65 0.871409 19.6536 2.12855 19.6536H3.64641V31.2857H28.3536V19.6536H29.9036C30.5143 19.6536 31.0893 19.4143 31.5214 18.9821C31.7342 18.77 31.9028 18.5178 32.0174 18.2401C32.1321 17.9624 32.1905 17.6647 32.1893 17.3643C32.1893 16.7571 31.95 16.1821 31.5178 15.75ZM18 28.7143H14V21.4286H18V28.7143ZM25.7821 17.0821V28.7143H20.2857V20.5714C20.2857 19.7821 19.6464 19.1429 18.8571 19.1429H13.1428C12.3536 19.1429 11.7143 19.7821 11.7143 20.5714V28.7143H6.21784V17.0821H2.78927L16.0036 3.87857L16.8286 4.70357L29.2143 17.0821H25.7821Z" fill="white"/>
</svg>
